<svg width="1093" height="326" viewBox="89 74 1093 326" fill="none" xmlns="http://www.w3.org/2000/svg">
<mask id="path-1-outside-1_57_26" maskUnits="userSpaceOnUse" x="431" y="153" width="751" height="94" fill="black">
<rect fill="white" x="431" y="153" width="751" height="94"/>
<path d="M454.4 243.075C450.225 243.075 446.211 242.513 442.357 241.39C438.503 240.187 435.051 238.543 432 236.457V221.898C434.087 227.273 437.259 231.364 441.514 234.171C445.85 236.898 450.346 238.262 455.003 238.262C459.659 238.262 463.553 236.738 466.685 233.69C469.816 230.561 471.381 226.711 471.381 222.139C471.381 219.091 470.739 216.484 469.455 214.318C468.25 212.152 466.283 210.147 463.553 208.302C460.824 206.377 456.97 204.251 451.992 201.925C445.007 198.717 439.908 195.388 436.697 191.939C433.566 188.409 432 184.158 432 179.184C432 174.933 433.004 171.163 435.011 167.874C437.098 164.505 439.868 161.939 443.321 160.174C446.853 158.329 450.707 157.406 454.882 157.406C458.495 157.406 462.028 157.928 465.48 158.971C468.933 159.933 472.144 161.337 475.115 163.182V176.176C473.188 171.765 470.257 168.356 466.323 165.949C462.469 163.463 458.535 162.219 454.521 162.219C449.944 162.219 446.251 163.703 443.441 166.671C440.631 169.639 439.226 173.168 439.226 177.259C439.226 180.227 440.069 182.794 441.755 184.96C443.441 187.045 445.488 188.81 447.897 190.254C450.386 191.698 453.838 193.463 458.254 195.548C462.75 197.714 466.444 199.719 469.334 201.564C472.224 203.409 474.633 205.816 476.56 208.783C478.487 211.751 479.45 215.361 479.45 219.612C479.45 224.425 478.286 228.596 475.958 232.126C473.71 235.655 470.659 238.382 466.805 240.307C463.031 242.152 458.897 243.075 454.4 243.075Z"/>
<path d="M572.342 212.874C572.342 219.211 571.138 224.666 568.729 229.238C566.321 233.73 562.909 237.179 558.493 239.586C554.157 241.912 549.099 243.075 543.318 243.075C533.764 243.075 526.377 240.428 521.159 235.134C515.94 229.84 513.331 222.5 513.331 213.115V170.04C513.331 166.832 512.929 164.425 512.126 162.821C511.404 161.136 510.561 160.013 509.597 159.452C508.714 158.89 508.272 158.69 508.272 158.85H527.06C527.06 158.69 526.578 158.89 525.615 159.452C524.731 160.013 523.888 161.096 523.086 162.701C522.363 164.305 522.002 166.631 522.002 169.679V213.115C522.002 220.896 523.848 226.912 527.542 231.163C531.315 235.414 536.815 237.54 544.041 237.54C550.705 237.54 555.964 235.535 559.817 231.524C563.671 227.433 565.598 221.417 565.598 213.476V170.04C565.598 166.832 565.197 164.425 564.394 162.821C563.591 161.136 562.708 160.013 561.744 159.452C560.781 158.89 560.299 158.69 560.299 158.85H577.642C577.642 158.69 577.16 158.89 576.196 159.452C575.233 160.013 574.35 161.136 573.547 162.821C572.744 164.425 572.342 166.832 572.342 170.04V212.874Z"/>
<path d="M683.491 158.85C682.367 159.091 681.243 160.013 680.119 161.618C679.075 163.142 678.554 165.869 678.554 169.799V245L616.892 173.168V230.802C616.892 234.652 617.575 237.38 618.94 238.984C620.304 240.508 621.629 241.39 622.914 241.631H605.933C607.057 241.39 608.181 240.508 609.305 238.984C610.509 237.38 611.111 234.612 611.111 230.682V170.521C611.111 167.794 610.188 165.307 608.341 163.061C606.495 160.816 604.166 159.412 601.356 158.85H616.29L672.773 224.666V169.799C672.773 163.623 670.685 159.973 666.51 158.85H683.491Z"/>
<path d="M768.252 234.893C760.705 239.385 750.629 241.631 738.024 241.631H714.299C714.299 241.872 714.78 241.671 715.744 241.029C716.707 240.307 717.55 239.024 718.273 237.179C719.076 235.334 719.477 232.647 719.477 229.118V169.92C719.477 166.791 719.076 164.425 718.273 162.821C717.55 161.136 716.707 160.013 715.744 159.452C714.78 158.89 714.299 158.69 714.299 158.85H737.903C750.187 158.85 759.902 160.856 767.048 164.866C773.391 168.396 778.288 173.168 781.741 179.184C785.193 185.201 786.919 191.979 786.919 199.519C786.919 207.701 785.273 214.799 781.982 220.816C778.77 226.751 774.194 231.444 768.252 234.893ZM763.555 170.281C760.023 167.955 756.249 166.27 752.235 165.227C748.22 164.184 743.443 163.663 737.903 163.663H728.148V236.818H737.903C744.487 236.818 749.866 236.257 754.041 235.134C758.297 234.011 761.95 232.286 765.001 229.96C768.935 226.912 771.946 222.941 774.033 218.048C776.201 213.075 777.285 207.299 777.285 200.722C777.285 193.743 776.04 187.647 773.551 182.433C771.143 177.139 767.811 173.088 763.555 170.281Z"/>
<path d="M831.135 209.505L823.427 228.636C822.223 231.604 821.621 234.051 821.621 235.976C821.621 238.623 822.825 240.508 825.234 241.631H808.012C808.815 241.631 809.979 240.829 811.505 239.225C813.03 237.62 814.796 234.452 816.804 229.719L848.236 155L879.428 230.08C881.195 234.412 882.881 237.38 884.487 238.984C886.173 240.588 887.497 241.471 888.461 241.631H868.469C870.476 240.668 871.48 239.184 871.48 237.179C871.48 235.495 870.838 233.088 869.553 229.96L861.123 209.505H831.135ZM859.196 204.572L846.069 172.447L833.182 204.572H859.196Z"/>
<path d="M935.126 200C938.819 200 942.03 199.158 944.76 197.473C947.49 195.709 949.537 193.463 950.902 190.735C952.348 187.928 953.07 185 953.07 181.952C953.07 178.824 952.388 175.896 951.023 173.168C949.738 170.361 947.731 168.075 945.001 166.31C942.271 164.545 938.939 163.663 935.005 163.663H924.768V230.561C924.768 233.77 925.17 236.217 925.973 237.901C926.776 239.505 927.659 240.588 928.622 241.15C929.586 241.631 930.068 241.791 930.068 241.631H910.919C910.919 241.791 911.4 241.591 912.364 241.029C913.327 240.468 914.17 239.385 914.893 237.781C915.696 236.176 916.097 233.77 916.097 230.561V170.401C916.097 167.112 915.696 164.626 914.893 162.941C914.17 161.176 913.327 160.013 912.364 159.452C911.4 158.81 910.919 158.61 910.919 158.85H934.764C941.027 158.85 946.165 159.893 950.18 161.979C954.274 163.984 957.205 166.631 958.971 169.92C960.818 173.128 961.741 176.658 961.741 180.508C961.741 183.717 960.979 186.885 959.453 190.013C957.928 193.061 955.72 195.749 952.829 198.075C950.019 200.321 946.727 201.885 942.954 202.767L941.027 203.128L962.223 230.08C965.033 233.209 967.361 235.615 969.208 237.299C971.055 238.984 972.379 240.107 973.182 240.668C974.066 241.23 974.587 241.551 974.748 241.631H960.657L927.9 200H935.126Z"/>
<path d="M1012.82 209.505L1005.11 228.636C1003.91 231.604 1003.3 234.051 1003.3 235.976C1003.3 238.623 1004.51 240.508 1006.92 241.631H989.696C990.499 241.631 991.663 240.829 993.188 239.225C994.714 237.62 996.48 234.452 998.487 229.719L1029.92 155L1061.11 230.08C1062.88 234.412 1064.56 237.38 1066.17 238.984C1067.86 240.588 1069.18 241.471 1070.14 241.631H1050.15C1052.16 240.668 1053.16 239.184 1053.16 237.179C1053.16 235.495 1052.52 233.088 1051.24 229.96L1042.81 209.505H1012.82ZM1040.88 204.572L1027.75 172.447L1014.87 204.572H1040.88Z"/>
<path d="M1162.33 241.631C1163.3 241.471 1164.34 240.628 1165.46 239.104C1166.59 237.5 1167.15 234.572 1167.15 230.321V170.16L1135.6 242.955L1103.56 170.281V229.719C1103.56 234.051 1104.24 237.099 1105.61 238.864C1107.05 240.548 1108.34 241.471 1109.46 241.631H1091.64C1092.84 241.471 1094.17 240.588 1095.61 238.984C1097.06 237.299 1097.78 234.211 1097.78 229.719V169.439C1097.78 165.588 1097.1 162.941 1095.73 161.497C1094.37 160.053 1093 159.171 1091.64 158.85H1107.9L1137.4 226.11L1166.43 158.85H1181C1179.96 159.011 1178.83 159.853 1177.63 161.377C1176.42 162.901 1175.82 165.709 1175.82 169.799V230.802C1175.82 234.813 1176.42 237.58 1177.63 239.104C1178.83 240.628 1179.96 241.471 1181 241.631H1162.33Z"/>
</mask>
<path d="M454.4 243.075C450.225 243.075 446.211 242.513 442.357 241.39C438.503 240.187 435.051 238.543 432 236.457V221.898C434.087 227.273 437.259 231.364 441.514 234.171C445.85 236.898 450.346 238.262 455.003 238.262C459.659 238.262 463.553 236.738 466.685 233.69C469.816 230.561 471.381 226.711 471.381 222.139C471.381 219.091 470.739 216.484 469.455 214.318C468.25 212.152 466.283 210.147 463.553 208.302C460.824 206.377 456.97 204.251 451.992 201.925C445.007 198.717 439.908 195.388 436.697 191.939C433.566 188.409 432 184.158 432 179.184C432 174.933 433.004 171.163 435.011 167.874C437.098 164.505 439.868 161.939 443.321 160.174C446.853 158.329 450.707 157.406 454.882 157.406C458.495 157.406 462.028 157.928 465.48 158.971C468.933 159.933 472.144 161.337 475.115 163.182V176.176C473.188 171.765 470.257 168.356 466.323 165.949C462.469 163.463 458.535 162.219 454.521 162.219C449.944 162.219 446.251 163.703 443.441 166.671C440.631 169.639 439.226 173.168 439.226 177.259C439.226 180.227 440.069 182.794 441.755 184.96C443.441 187.045 445.488 188.81 447.897 190.254C450.386 191.698 453.838 193.463 458.254 195.548C462.75 197.714 466.444 199.719 469.334 201.564C472.224 203.409 474.633 205.816 476.56 208.783C478.487 211.751 479.45 215.361 479.45 219.612C479.45 224.425 478.286 228.596 475.958 232.126C473.71 235.655 470.659 238.382 466.805 240.307C463.031 242.152 458.897 243.075 454.4 243.075Z" fill="#2C2C2C"/>
<path d="M572.342 212.874C572.342 219.211 571.138 224.666 568.729 229.238C566.321 233.73 562.909 237.179 558.493 239.586C554.157 241.912 549.099 243.075 543.318 243.075C533.764 243.075 526.377 240.428 521.159 235.134C515.94 229.84 513.331 222.5 513.331 213.115V170.04C513.331 166.832 512.929 164.425 512.126 162.821C511.404 161.136 510.561 160.013 509.597 159.452C508.714 158.89 508.272 158.69 508.272 158.85H527.06C527.06 158.69 526.578 158.89 525.615 159.452C524.731 160.013 523.888 161.096 523.086 162.701C522.363 164.305 522.002 166.631 522.002 169.679V213.115C522.002 220.896 523.848 226.912 527.542 231.163C531.315 235.414 536.815 237.54 544.041 237.54C550.705 237.54 555.964 235.535 559.817 231.524C563.671 227.433 565.598 221.417 565.598 213.476V170.04C565.598 166.832 565.197 164.425 564.394 162.821C563.591 161.136 562.708 160.013 561.744 159.452C560.781 158.89 560.299 158.69 560.299 158.85H577.642C577.642 158.69 577.16 158.89 576.196 159.452C575.233 160.013 574.35 161.136 573.547 162.821C572.744 164.425 572.342 166.832 572.342 170.04V212.874Z" fill="#2C2C2C"/>
<path d="M683.491 158.85C682.367 159.091 681.243 160.013 680.119 161.618C679.075 163.142 678.554 165.869 678.554 169.799V245L616.892 173.168V230.802C616.892 234.652 617.575 237.38 618.94 238.984C620.304 240.508 621.629 241.39 622.914 241.631H605.933C607.057 241.39 608.181 240.508 609.305 238.984C610.509 237.38 611.111 234.612 611.111 230.682V170.521C611.111 167.794 610.188 165.307 608.341 163.061C606.495 160.816 604.166 159.412 601.356 158.85H616.29L672.773 224.666V169.799C672.773 163.623 670.685 159.973 666.51 158.85H683.491Z" fill="#2C2C2C"/>
<path d="M768.252 234.893C760.705 239.385 750.629 241.631 738.024 241.631H714.299C714.299 241.872 714.78 241.671 715.744 241.029C716.707 240.307 717.55 239.024 718.273 237.179C719.076 235.334 719.477 232.647 719.477 229.118V169.92C719.477 166.791 719.076 164.425 718.273 162.821C717.55 161.136 716.707 160.013 715.744 159.452C714.78 158.89 714.299 158.69 714.299 158.85H737.903C750.187 158.85 759.902 160.856 767.048 164.866C773.391 168.396 778.288 173.168 781.741 179.184C785.193 185.201 786.919 191.979 786.919 199.519C786.919 207.701 785.273 214.799 781.982 220.816C778.77 226.751 774.194 231.444 768.252 234.893ZM763.555 170.281C760.023 167.955 756.249 166.27 752.235 165.227C748.22 164.184 743.443 163.663 737.903 163.663H728.148V236.818H737.903C744.487 236.818 749.866 236.257 754.041 235.134C758.297 234.011 761.95 232.286 765.001 229.96C768.935 226.912 771.946 222.941 774.033 218.048C776.201 213.075 777.285 207.299 777.285 200.722C777.285 193.743 776.04 187.647 773.551 182.433C771.143 177.139 767.811 173.088 763.555 170.281Z" fill="#2C2C2C"/>
<path d="M831.135 209.505L823.427 228.636C822.223 231.604 821.621 234.051 821.621 235.976C821.621 238.623 822.825 240.508 825.234 241.631H808.012C808.815 241.631 809.979 240.829 811.505 239.225C813.03 237.62 814.796 234.452 816.804 229.719L848.236 155L879.428 230.08C881.195 234.412 882.881 237.38 884.487 238.984C886.173 240.588 887.497 241.471 888.461 241.631H868.469C870.476 240.668 871.48 239.184 871.48 237.179C871.48 235.495 870.838 233.088 869.553 229.96L861.123 209.505H831.135ZM859.196 204.572L846.069 172.447L833.182 204.572H859.196Z" fill="#2C2C2C"/>
<path d="M935.126 200C938.819 200 942.03 199.158 944.76 197.473C947.49 195.709 949.537 193.463 950.902 190.735C952.348 187.928 953.07 185 953.07 181.952C953.07 178.824 952.388 175.896 951.023 173.168C949.738 170.361 947.731 168.075 945.001 166.31C942.271 164.545 938.939 163.663 935.005 163.663H924.768V230.561C924.768 233.77 925.17 236.217 925.973 237.901C926.776 239.505 927.659 240.588 928.622 241.15C929.586 241.631 930.068 241.791 930.068 241.631H910.919C910.919 241.791 911.4 241.591 912.364 241.029C913.327 240.468 914.17 239.385 914.893 237.781C915.696 236.176 916.097 233.77 916.097 230.561V170.401C916.097 167.112 915.696 164.626 914.893 162.941C914.17 161.176 913.327 160.013 912.364 159.452C911.4 158.81 910.919 158.61 910.919 158.85H934.764C941.027 158.85 946.165 159.893 950.18 161.979C954.274 163.984 957.205 166.631 958.971 169.92C960.818 173.128 961.741 176.658 961.741 180.508C961.741 183.717 960.979 186.885 959.453 190.013C957.928 193.061 955.72 195.749 952.829 198.075C950.019 200.321 946.727 201.885 942.954 202.767L941.027 203.128L962.223 230.08C965.033 233.209 967.361 235.615 969.208 237.299C971.055 238.984 972.379 240.107 973.182 240.668C974.066 241.23 974.587 241.551 974.748 241.631H960.657L927.9 200H935.126Z" fill="#2C2C2C"/>
<path d="M1012.82 209.505L1005.11 228.636C1003.91 231.604 1003.3 234.051 1003.3 235.976C1003.3 238.623 1004.51 240.508 1006.92 241.631H989.696C990.499 241.631 991.663 240.829 993.188 239.225C994.714 237.62 996.48 234.452 998.487 229.719L1029.92 155L1061.11 230.08C1062.88 234.412 1064.56 237.38 1066.17 238.984C1067.86 240.588 1069.18 241.471 1070.14 241.631H1050.15C1052.16 240.668 1053.16 239.184 1053.16 237.179C1053.16 235.495 1052.52 233.088 1051.24 229.96L1042.81 209.505H1012.82ZM1040.88 204.572L1027.75 172.447L1014.87 204.572H1040.88Z" fill="#2C2C2C"/>
<path d="M1162.33 241.631C1163.3 241.471 1164.34 240.628 1165.46 239.104C1166.59 237.5 1167.15 234.572 1167.15 230.321V170.16L1135.6 242.955L1103.56 170.281V229.719C1103.56 234.051 1104.24 237.099 1105.61 238.864C1107.05 240.548 1108.34 241.471 1109.46 241.631H1091.64C1092.84 241.471 1094.17 240.588 1095.61 238.984C1097.06 237.299 1097.78 234.211 1097.78 229.719V169.439C1097.78 165.588 1097.1 162.941 1095.73 161.497C1094.37 160.053 1093 159.171 1091.64 158.85H1107.9L1137.4 226.11L1166.43 158.85H1181C1179.96 159.011 1178.83 159.853 1177.63 161.377C1176.42 162.901 1175.82 165.709 1175.82 169.799V230.802C1175.82 234.813 1176.42 237.58 1177.63 239.104C1178.83 240.628 1179.96 241.471 1181 241.631H1162.33Z" fill="#2C2C2C"/>
<path d="M454.4 243.075C450.225 243.075 446.211 242.513 442.357 241.39C438.503 240.187 435.051 238.543 432 236.457V221.898C434.087 227.273 437.259 231.364 441.514 234.171C445.85 236.898 450.346 238.262 455.003 238.262C459.659 238.262 463.553 236.738 466.685 233.69C469.816 230.561 471.381 226.711 471.381 222.139C471.381 219.091 470.739 216.484 469.455 214.318C468.25 212.152 466.283 210.147 463.553 208.302C460.824 206.377 456.97 204.251 451.992 201.925C445.007 198.717 439.908 195.388 436.697 191.939C433.566 188.409 432 184.158 432 179.184C432 174.933 433.004 171.163 435.011 167.874C437.098 164.505 439.868 161.939 443.321 160.174C446.853 158.329 450.707 157.406 454.882 157.406C458.495 157.406 462.028 157.928 465.48 158.971C468.933 159.933 472.144 161.337 475.115 163.182V176.176C473.188 171.765 470.257 168.356 466.323 165.949C462.469 163.463 458.535 162.219 454.521 162.219C449.944 162.219 446.251 163.703 443.441 166.671C440.631 169.639 439.226 173.168 439.226 177.259C439.226 180.227 440.069 182.794 441.755 184.96C443.441 187.045 445.488 188.81 447.897 190.254C450.386 191.698 453.838 193.463 458.254 195.548C462.75 197.714 466.444 199.719 469.334 201.564C472.224 203.409 474.633 205.816 476.56 208.783C478.487 211.751 479.45 215.361 479.45 219.612C479.45 224.425 478.286 228.596 475.958 232.126C473.71 235.655 470.659 238.382 466.805 240.307C463.031 242.152 458.897 243.075 454.4 243.075Z" stroke="#2C2C2C" mask="url(#path-1-outside-1_57_26)"/>
<path d="M572.342 212.874C572.342 219.211 571.138 224.666 568.729 229.238C566.321 233.73 562.909 237.179 558.493 239.586C554.157 241.912 549.099 243.075 543.318 243.075C533.764 243.075 526.377 240.428 521.159 235.134C515.94 229.84 513.331 222.5 513.331 213.115V170.04C513.331 166.832 512.929 164.425 512.126 162.821C511.404 161.136 510.561 160.013 509.597 159.452C508.714 158.89 508.272 158.69 508.272 158.85H527.06C527.06 158.69 526.578 158.89 525.615 159.452C524.731 160.013 523.888 161.096 523.086 162.701C522.363 164.305 522.002 166.631 522.002 169.679V213.115C522.002 220.896 523.848 226.912 527.542 231.163C531.315 235.414 536.815 237.54 544.041 237.54C550.705 237.54 555.964 235.535 559.817 231.524C563.671 227.433 565.598 221.417 565.598 213.476V170.04C565.598 166.832 565.197 164.425 564.394 162.821C563.591 161.136 562.708 160.013 561.744 159.452C560.781 158.89 560.299 158.69 560.299 158.85H577.642C577.642 158.69 577.16 158.89 576.196 159.452C575.233 160.013 574.35 161.136 573.547 162.821C572.744 164.425 572.342 166.832 572.342 170.04V212.874Z" stroke="#2C2C2C" mask="url(#path-1-outside-1_57_26)"/>
<path d="M683.491 158.85C682.367 159.091 681.243 160.013 680.119 161.618C679.075 163.142 678.554 165.869 678.554 169.799V245L616.892 173.168V230.802C616.892 234.652 617.575 237.38 618.94 238.984C620.304 240.508 621.629 241.39 622.914 241.631H605.933C607.057 241.39 608.181 240.508 609.305 238.984C610.509 237.38 611.111 234.612 611.111 230.682V170.521C611.111 167.794 610.188 165.307 608.341 163.061C606.495 160.816 604.166 159.412 601.356 158.85H616.29L672.773 224.666V169.799C672.773 163.623 670.685 159.973 666.51 158.85H683.491Z" stroke="#2C2C2C" mask="url(#path-1-outside-1_57_26)"/>
<path d="M768.252 234.893C760.705 239.385 750.629 241.631 738.024 241.631H714.299C714.299 241.872 714.78 241.671 715.744 241.029C716.707 240.307 717.55 239.024 718.273 237.179C719.076 235.334 719.477 232.647 719.477 229.118V169.92C719.477 166.791 719.076 164.425 718.273 162.821C717.55 161.136 716.707 160.013 715.744 159.452C714.78 158.89 714.299 158.69 714.299 158.85H737.903C750.187 158.85 759.902 160.856 767.048 164.866C773.391 168.396 778.288 173.168 781.741 179.184C785.193 185.201 786.919 191.979 786.919 199.519C786.919 207.701 785.273 214.799 781.982 220.816C778.77 226.751 774.194 231.444 768.252 234.893ZM763.555 170.281C760.023 167.955 756.249 166.27 752.235 165.227C748.22 164.184 743.443 163.663 737.903 163.663H728.148V236.818H737.903C744.487 236.818 749.866 236.257 754.041 235.134C758.297 234.011 761.95 232.286 765.001 229.96C768.935 226.912 771.946 222.941 774.033 218.048C776.201 213.075 777.285 207.299 777.285 200.722C777.285 193.743 776.04 187.647 773.551 182.433C771.143 177.139 767.811 173.088 763.555 170.281Z" stroke="#2C2C2C" mask="url(#path-1-outside-1_57_26)"/>
<path d="M831.135 209.505L823.427 228.636C822.223 231.604 821.621 234.051 821.621 235.976C821.621 238.623 822.825 240.508 825.234 241.631H808.012C808.815 241.631 809.979 240.829 811.505 239.225C813.03 237.62 814.796 234.452 816.804 229.719L848.236 155L879.428 230.08C881.195 234.412 882.881 237.38 884.487 238.984C886.173 240.588 887.497 241.471 888.461 241.631H868.469C870.476 240.668 871.48 239.184 871.48 237.179C871.48 235.495 870.838 233.088 869.553 229.96L861.123 209.505H831.135ZM859.196 204.572L846.069 172.447L833.182 204.572H859.196Z" stroke="#2C2C2C" mask="url(#path-1-outside-1_57_26)"/>
<path d="M935.126 200C938.819 200 942.03 199.158 944.76 197.473C947.49 195.709 949.537 193.463 950.902 190.735C952.348 187.928 953.07 185 953.07 181.952C953.07 178.824 952.388 175.896 951.023 173.168C949.738 170.361 947.731 168.075 945.001 166.31C942.271 164.545 938.939 163.663 935.005 163.663H924.768V230.561C924.768 233.77 925.17 236.217 925.973 237.901C926.776 239.505 927.659 240.588 928.622 241.15C929.586 241.631 930.068 241.791 930.068 241.631H910.919C910.919 241.791 911.4 241.591 912.364 241.029C913.327 240.468 914.17 239.385 914.893 237.781C915.696 236.176 916.097 233.77 916.097 230.561V170.401C916.097 167.112 915.696 164.626 914.893 162.941C914.17 161.176 913.327 160.013 912.364 159.452C911.4 158.81 910.919 158.61 910.919 158.85H934.764C941.027 158.85 946.165 159.893 950.18 161.979C954.274 163.984 957.205 166.631 958.971 169.92C960.818 173.128 961.741 176.658 961.741 180.508C961.741 183.717 960.979 186.885 959.453 190.013C957.928 193.061 955.72 195.749 952.829 198.075C950.019 200.321 946.727 201.885 942.954 202.767L941.027 203.128L962.223 230.08C965.033 233.209 967.361 235.615 969.208 237.299C971.055 238.984 972.379 240.107 973.182 240.668C974.066 241.23 974.587 241.551 974.748 241.631H960.657L927.9 200H935.126Z" stroke="#2C2C2C" mask="url(#path-1-outside-1_57_26)"/>
<path d="M1012.82 209.505L1005.11 228.636C1003.91 231.604 1003.3 234.051 1003.3 235.976C1003.3 238.623 1004.51 240.508 1006.92 241.631H989.696C990.499 241.631 991.663 240.829 993.188 239.225C994.714 237.62 996.48 234.452 998.487 229.719L1029.92 155L1061.11 230.08C1062.88 234.412 1064.56 237.38 1066.17 238.984C1067.86 240.588 1069.18 241.471 1070.14 241.631H1050.15C1052.16 240.668 1053.16 239.184 1053.16 237.179C1053.16 235.495 1052.52 233.088 1051.24 229.96L1042.81 209.505H1012.82ZM1040.88 204.572L1027.75 172.447L1014.87 204.572H1040.88Z" stroke="#2C2C2C" mask="url(#path-1-outside-1_57_26)"/>
<path d="M1162.33 241.631C1163.3 241.471 1164.34 240.628 1165.46 239.104C1166.59 237.5 1167.15 234.572 1167.15 230.321V170.16L1135.6 242.955L1103.56 170.281V229.719C1103.56 234.051 1104.24 237.099 1105.61 238.864C1107.05 240.548 1108.34 241.471 1109.46 241.631H1091.64C1092.84 241.471 1094.17 240.588 1095.61 238.984C1097.06 237.299 1097.78 234.211 1097.78 229.719V169.439C1097.78 165.588 1097.1 162.941 1095.73 161.497C1094.37 160.053 1093 159.171 1091.64 158.85H1107.9L1137.4 226.11L1166.43 158.85H1181C1179.96 159.011 1178.83 159.853 1177.63 161.377C1176.42 162.901 1175.82 165.709 1175.82 169.799V230.802C1175.82 234.813 1176.42 237.58 1177.63 239.104C1178.83 240.628 1179.96 241.471 1181 241.631H1162.33Z" stroke="#2C2C2C" mask="url(#path-1-outside-1_57_26)"/>
<path d="M452 275C449.239 290 447 292.239 432 295C447 297.761 449.239 300 452 315C454.761 300 457 297.761 472 295C457 292.239 454.761 290 452 275Z" fill="#2C2C2C"/>
<path d="M785.371 295H467" stroke="#2C2C2C" stroke-width="2"/>
<path d="M800.371 277.285H804.582V308.779H820.387V312.468H800.371V277.285Z" fill="#2C2C2C"/>
<path d="M828.463 277.285H832.674V300.088C832.674 301.491 832.79 302.696 833.021 303.703C833.269 304.71 833.781 305.651 834.557 306.525C836.209 308.391 838.645 309.323 841.865 309.323C844.194 309.323 846.134 308.82 847.687 307.813C849.255 306.79 850.271 305.353 850.734 303.505C850.948 302.63 851.056 301.491 851.056 300.088V277.285H855.217C855.217 282.583 855.217 286.916 855.217 290.283C855.234 293.651 855.242 295.813 855.242 296.77C855.242 297.711 855.242 298.47 855.242 299.048C855.259 299.609 855.267 300.08 855.267 300.459C855.267 301.219 855.25 301.887 855.217 302.465C855.184 303.026 855.069 303.769 854.871 304.693C854.689 305.618 854.433 306.426 854.103 307.12C853.772 307.796 853.269 308.523 852.591 309.298C851.931 310.074 851.138 310.718 850.213 311.23C849.305 311.725 848.132 312.138 846.696 312.468C845.275 312.798 843.665 312.963 841.865 312.963C839.933 312.963 838.199 312.765 836.663 312.369C835.127 311.956 833.921 311.469 833.046 310.908C832.171 310.347 831.411 309.67 830.767 308.878C830.139 308.085 829.702 307.408 829.454 306.847C829.223 306.27 829.033 305.667 828.884 305.04C828.603 303.95 828.463 302.407 828.463 300.41V277.285Z" fill="#2C2C2C"/>
<path d="M887.397 277.285H892.252L881.105 293.997L893.615 312.468H888.165L878.281 297.637L868.396 312.468H863.194L875.902 294.096L864.68 277.285H869.784L878.751 290.531L887.397 277.285Z" fill="#2C2C2C"/>
<path d="M901.542 277.285H905.753V300.088C905.753 301.491 905.869 302.696 906.1 303.703C906.348 304.71 906.86 305.651 907.636 306.525C909.287 308.391 911.723 309.323 914.944 309.323C917.272 309.323 919.213 308.82 920.765 307.813C922.334 306.79 923.35 305.353 923.812 303.505C924.027 302.63 924.134 301.491 924.134 300.088V277.285H928.296C928.296 282.583 928.296 286.916 928.296 290.283C928.313 293.651 928.321 295.813 928.321 296.77C928.321 297.711 928.321 298.47 928.321 299.048C928.337 299.609 928.346 300.08 928.346 300.459C928.346 301.219 928.329 301.887 928.296 302.465C928.263 303.026 928.147 303.769 927.949 304.693C927.768 305.618 927.512 306.426 927.181 307.12C926.851 307.796 926.347 308.523 925.67 309.298C925.01 310.074 924.217 310.718 923.292 311.23C922.384 311.725 921.211 312.138 919.774 312.468C918.354 312.798 916.744 312.963 914.944 312.963C913.012 312.963 911.277 312.765 909.742 312.369C908.206 311.956 907 311.469 906.125 310.908C905.249 310.347 904.49 309.67 903.846 308.878C903.218 308.085 902.78 307.408 902.533 306.847C902.302 306.27 902.112 305.667 901.963 305.04C901.682 303.95 901.542 302.407 901.542 300.41V277.285Z" fill="#2C2C2C"/>
<path d="M963.968 286.941C963.968 288.113 963.828 289.227 963.547 290.283C963.267 291.34 962.829 292.347 962.234 293.304C961.64 294.261 960.814 295.095 959.757 295.805C958.717 296.498 957.495 297.01 956.091 297.34L966.025 312.468H961.318L951.78 297.81H944.968V312.468H940.732V277.285H953.663C954.258 277.285 954.794 277.301 955.273 277.334C955.752 277.367 956.363 277.458 957.106 277.607C957.866 277.739 958.535 277.928 959.113 278.176C959.691 278.407 960.294 278.77 960.921 279.265C961.566 279.744 962.094 280.314 962.507 280.974C962.936 281.634 963.283 282.476 963.547 283.499C963.828 284.523 963.968 285.67 963.968 286.941ZM944.968 294.096H951.037C951.879 294.096 952.623 294.071 953.267 294.022C953.911 293.956 954.662 293.799 955.521 293.552C956.396 293.287 957.115 292.933 957.676 292.487C958.254 292.025 958.741 291.364 959.138 290.506C959.551 289.631 959.757 288.6 959.757 287.411C959.757 286.569 959.65 285.81 959.435 285.133C959.22 284.457 958.948 283.904 958.618 283.475C958.287 283.029 957.883 282.649 957.404 282.336C956.925 282.005 956.462 281.758 956.017 281.593C955.571 281.428 955.075 281.296 954.53 281.197C953.985 281.098 953.531 281.04 953.168 281.023C952.821 280.99 952.449 280.974 952.053 280.974H944.968V294.096Z" fill="#2C2C2C"/>
<path d="M971.648 277.285H976.627L985.595 291.818L994.761 277.285H999.467L987.478 295.805V312.468H983.266V295.805L971.648 277.285Z" fill="#2C2C2C"/>
<path d="M1038.78 277.037C1041.99 277.037 1045.17 277.664 1048.34 278.919L1047.06 282.41C1043.85 281.304 1041.05 280.751 1038.66 280.751C1036.68 280.751 1034.83 281.147 1033.13 281.939C1031.45 282.715 1030.04 283.763 1028.92 285.084C1027.82 286.388 1026.95 287.89 1026.32 289.59C1025.69 291.274 1025.38 293.04 1025.38 294.889C1025.38 296.803 1025.71 298.627 1026.37 300.36C1027.05 302.077 1027.99 303.587 1029.19 304.891C1030.4 306.179 1031.89 307.202 1033.68 307.961C1035.48 308.721 1037.44 309.1 1039.57 309.1C1042.12 309.1 1044.77 308.605 1047.53 307.615L1048.81 310.734C1045.36 312.22 1041.93 312.963 1038.51 312.963C1036.39 312.963 1034.41 312.657 1032.56 312.047C1030.71 311.436 1029.1 310.586 1027.71 309.497C1026.34 308.391 1025.16 307.087 1024.17 305.585C1023.17 304.083 1022.42 302.432 1021.91 300.633C1021.42 298.817 1021.17 296.911 1021.17 294.913C1021.17 291.53 1021.87 288.492 1023.27 285.802C1024.69 283.111 1026.75 280.982 1029.44 279.414C1032.13 277.829 1035.25 277.037 1038.78 277.037Z" fill="#2C2C2C"/>
<path d="M1080.75 286.941C1080.75 288.113 1080.61 289.227 1080.32 290.283C1080.04 291.34 1079.61 292.347 1079.01 293.304C1078.42 294.261 1077.59 295.095 1076.53 295.805C1075.49 296.498 1074.27 297.01 1072.87 297.34L1082.8 312.468H1078.1L1068.56 297.81H1061.75V312.468H1057.51V277.285H1070.44C1071.04 277.285 1071.57 277.301 1072.05 277.334C1072.53 277.367 1073.14 277.458 1073.88 277.607C1074.64 277.739 1075.31 277.928 1075.89 278.176C1076.47 278.407 1077.07 278.77 1077.7 279.265C1078.34 279.744 1078.87 280.314 1079.28 280.974C1079.71 281.634 1080.06 282.476 1080.32 283.499C1080.61 284.523 1080.75 285.67 1080.75 286.941ZM1061.75 294.096H1067.81C1068.66 294.096 1069.4 294.071 1070.04 294.022C1070.69 293.956 1071.44 293.799 1072.3 293.552C1073.17 293.287 1073.89 292.933 1074.45 292.487C1075.03 292.025 1075.52 291.364 1075.92 290.506C1076.33 289.631 1076.53 288.6 1076.53 287.411C1076.53 286.569 1076.43 285.81 1076.21 285.133C1076 284.457 1075.73 283.904 1075.4 283.475C1075.06 283.029 1074.66 282.649 1074.18 282.336C1073.7 282.005 1073.24 281.758 1072.79 281.593C1072.35 281.428 1071.85 281.296 1071.31 281.197C1070.76 281.098 1070.31 281.04 1069.95 281.023C1069.6 280.99 1069.23 280.974 1068.83 280.974H1061.75V294.096Z" fill="#2C2C2C"/>
<path d="M1101.68 277.285H1106.46L1118.97 312.468H1114.71L1111.14 302.242H1096.63L1093.06 312.468H1089.17L1101.68 277.285ZM1103.88 281.395L1097.89 298.553H1109.85L1103.88 281.395Z" fill="#2C2C2C"/>
<path d="M1131.63 280.999V292.487H1146.32V296.201H1131.63V312.468H1127.42V277.285H1147.8V280.999H1131.63Z" fill="#2C2C2C"/>
<path d="M1153.25 277.285H1181V280.999H1169.23V312.468H1165.02V280.999H1153.25V277.285Z" fill="#2C2C2C"/>
<path d="M296.647 210.613H321.765L284.925 152.919H176.081L125.008 232.353L139.241 252.42H296.647L230.503 348.577L178.593 273.324H153.475L230.503 384.531L335.998 232.353H149.288L186.965 173.823H274.041L296.647 210.613Z" fill="#B8860B"/>
<path d="M295.809 152.919H320.927L372 232.353L230.503 400L346.882 232.353L295.809 152.919Z" fill="#B8860B"/>
<path d="M165.191 152.919H140.073L89 232.353L230.497 400L114.118 232.353L165.191 152.919Z" fill="#B8860B"/>
<path d="M209.541 132.896L183.926 142.214V144.543H274.743V135.225L291.043 90.9651L258.442 121.248L265.428 88.6356L245.635 104.942L253.785 132.896L230.499 76.9883L209.541 132.896Z" fill="#B8860B"/>
<path d="M183.929 139.884L169.957 90.9652L202.558 118.919L195.572 88.6357L217.694 104.942L208.38 130.566L183.929 139.884Z" fill="#B8860B"/>
<ellipse cx="169.954" cy="90.9656" rx="4.65728" ry="4.65895" fill="#B8860B"/>
<ellipse cx="291.044" cy="90.9656" rx="4.65728" ry="4.65895" fill="#B8860B"/>
<ellipse cx="230.493" cy="74.659" rx="4.65728" ry="4.65895" fill="#B8860B"/>
<ellipse cx="194.868" cy="87.4708" rx="3.49296" ry="3.49421" fill="#B8860B"/>
<ellipse cx="265.43" cy="87.4708" rx="3.49296" ry="3.49421" fill="#B8860B"/>
</svg>
